<svg width="115" height="92" viewBox="0 0 115 92" fill="none" xmlns="http://www.w3.org/2000/svg">
<g filter="url(#filter0_d_190_1)">
<path d="M4 24.779V71.6301C4 76.7968 8.20348 81.0003 13.3702 81.0003H100.826C105.992 81.0003 110.196 76.7968 110.196 71.6301V24.779L105.427 22.4885H8.98537L4 24.779Z" fill="#F3FAFF"/>
<path d="M110.195 24.779V71.6301C110.195 76.7962 105.991 81.0003 100.825 81.0003H56.3911V22.4885H105.426L110.195 24.779Z" fill="#E1EBF0"/>
<path d="M110.196 24.779V9.37022C110.196 4.20348 105.992 0 100.826 0H13.3702C8.20348 0 4 4.20348 4 9.37022V24.779H110.196Z" fill="#FFB858"/>
<path d="M110.195 9.37022V24.779H56.3911V0H100.825C105.991 0 110.195 4.2041 110.195 9.37022Z" fill="#E68F1A"/>
<path d="M67.3007 42.6872H98.5347C100.26 42.6872 101.658 41.2888 101.658 39.5638C101.658 37.8389 100.26 36.4404 98.5347 36.4404H67.3007C65.5757 36.4404 64.1772 37.8389 64.1772 39.5638C64.1772 41.2888 65.5757 42.6872 67.3007 42.6872Z" fill="#87A0AF"/>
<path d="M98.5347 48.9329H67.3007C65.5757 48.9329 64.1772 50.3313 64.1772 52.0563C64.1772 53.7812 65.5757 55.1797 67.3007 55.1797H98.5347C100.26 55.1797 101.658 53.7812 101.658 52.0563C101.658 50.3313 100.26 48.9329 98.5347 48.9329Z" fill="#87A0AF"/>
<path d="M98.5347 61.4263H67.3007C65.5757 61.4263 64.1772 62.8247 64.1772 64.5497C64.1772 66.2746 65.5757 67.6731 67.3007 67.6731H98.5347C100.26 67.6731 101.658 66.2746 101.658 64.5497C101.658 62.8247 100.26 61.4263 98.5347 61.4263Z" fill="#87A0AF"/>
<path d="M17.2489 42.6872H48.4829C50.2079 42.6872 51.6063 41.2888 51.6063 39.5638C51.6063 37.8389 50.2079 36.4404 48.4829 36.4404H17.2489C15.5239 36.4404 14.1255 37.8389 14.1255 39.5638C14.1255 41.2888 15.5239 42.6872 17.2489 42.6872Z" fill="#B0D0E3"/>
<path d="M48.4829 48.9329H17.2489C15.5239 48.9329 14.1255 50.3313 14.1255 52.0563C14.1255 53.7812 15.5239 55.1797 17.2489 55.1797H48.4829C50.2079 55.1797 51.6063 53.7812 51.6063 52.0563C51.6063 50.3313 50.2079 48.9329 48.4829 48.9329Z" fill="#B0D0E3"/>
<path d="M48.4829 61.4263H17.2489C15.5239 61.4263 14.1255 62.8247 14.1255 64.5497C14.1255 66.2746 15.5239 67.6731 17.2489 67.6731H48.4829C50.2079 67.6731 51.6063 66.2746 51.6063 64.5497C51.6063 62.8247 50.2079 61.4263 48.4829 61.4263Z" fill="#B0D0E3"/>
<path d="M82.0857 9.26587H32.1112C30.3862 9.26587 28.9878 10.6643 28.9878 12.3893C28.9878 14.1142 30.3862 15.5127 32.1112 15.5127H82.0857C83.8106 15.5127 85.2091 14.1142 85.2091 12.3893C85.2091 10.6643 83.8106 9.26587 82.0857 9.26587Z" fill="#E68F1A"/>
<path d="M85.2076 12.3893C85.2076 14.1134 83.8084 15.5127 82.0842 15.5127H56.3911V9.26587H82.0842C83.8084 9.26587 85.2076 10.6652 85.2076 12.3893Z" fill="#FFD56A"/>
</g>
<path d="M56.5 72C50.6996 72 46 76.4758 46 82C46 87.5242 50.6996 92 56.5 92C62.3004 92 67 87.5242 67 82C67 76.4758 62.3004 72 56.5 72ZM62.5968 83.129C62.5968 83.3952 62.3681 83.6129 62.0887 83.6129H58.1935V87.3226C58.1935 87.5887 57.9649 87.8065 57.6855 87.8065H55.3145C55.0351 87.8065 54.8065 87.5887 54.8065 87.3226V83.6129H50.9113C50.6319 83.6129 50.4032 83.3952 50.4032 83.129V80.871C50.4032 80.6048 50.6319 80.3871 50.9113 80.3871H54.8065V76.6774C54.8065 76.4113 55.0351 76.1935 55.3145 76.1935H57.6855C57.9649 76.1935 58.1935 76.4113 58.1935 76.6774V80.3871H62.0887C62.3681 80.3871 62.5968 80.6048 62.5968 80.871V83.129Z" fill="#02A6F3"/>
<defs>
<filter id="filter0_d_190_1" x="0" y="0" width="114.196" height="89.0004" filterUnits="userSpaceOnUse" color-interpolation-filters="sRGB">
<feFlood flood-opacity="0" result="BackgroundImageFix"/>
<feColorMatrix in="SourceAlpha" type="matrix" values="0 0 0 0 0 0 0 0 0 0 0 0 0 0 0 0 0 0 127 0" result="hardAlpha"/>
<feOffset dy="4"/>
<feGaussianBlur stdDeviation="2"/>
<feColorMatrix type="matrix" values="0 0 0 0 0 0 0 0 0 0 0 0 0 0 0 0 0 0 0.25 0"/>
<feBlend mode="normal" in2="BackgroundImageFix" result="effect1_dropShadow_190_1"/>
<feBlend mode="normal" in="SourceGraphic" in2="effect1_dropShadow_190_1" result="shape"/>
</filter>
</defs>
</svg>
