<svg width="115" height="92" viewBox="0 0 115 92" fill="none" xmlns="http://www.w3.org/2000/svg">
<g filter="url(#filter0_d_190_0)">
<path d="M4 24.779V71.6301C4 76.7968 8.20347 81.0003 13.3702 81.0003H100.825C105.992 81.0003 110.196 76.7968 110.196 71.6301V24.779L105.427 22.4885H8.98537L4 24.779Z" fill="#F3FAFF"/>
<path d="M110.195 24.779V71.6301C110.195 76.7962 105.991 81.0003 100.825 81.0003H56.3916V22.4885H105.427L110.195 24.779Z" fill="#E1EBF0"/>
<path d="M110.196 24.779V9.37021C110.196 4.20348 105.992 0 100.825 0H13.3702C8.20347 0 4 4.20348 4 9.37021V24.779H110.196Z" fill="#FFB858"/>
<path d="M110.195 9.37021V24.779H56.3916V0H100.825C105.991 0 110.195 4.2041 110.195 9.37021Z" fill="#E68F1A"/>
<path d="M45.6455 35.3995H14.4115C12.6865 35.3995 11.2881 36.798 11.2881 38.5229V68.7158C11.2881 70.4408 12.6865 71.8392 14.4115 71.8392L16.1927 68.7158H43.6786L45.6455 71.8392C47.3705 71.8392 48.7689 70.4408 48.7689 68.7158V38.5229C48.7689 36.798 47.3705 35.3995 45.6455 35.3995Z" fill="#9FCAFC"/>
<path d="M48.7687 38.5229V68.7158C48.7687 70.4399 47.3695 71.8392 45.6453 71.8392L43.6776 68.7158H30.0283V35.3995H45.6453C47.3695 35.3995 48.7687 36.7988 48.7687 38.5229Z" fill="#6AA9FF"/>
<path d="M45.6452 71.8389C45.6452 63.2277 38.6394 56.2219 30.0281 56.2219C21.4169 56.2219 14.4111 63.2277 14.4111 71.8389" fill="#6AA9FF"/>
<path d="M45.6453 71.8389H30.0283V56.2219C38.6406 56.2219 45.6453 63.2288 45.6453 71.8389Z" fill="#2880EA"/>
<path d="M30.0273 58.3038C34.6273 58.3038 38.3564 54.5747 38.3564 49.9747C38.3564 45.3747 34.6273 41.6456 30.0273 41.6456C25.4273 41.6456 21.6982 45.3747 21.6982 49.9747C21.6982 54.5747 25.4273 58.3038 30.0273 58.3038Z" fill="#F5DBCC"/>
<path d="M38.3574 49.9747C38.3574 54.5682 34.6218 58.3038 30.0283 58.3038V41.6456C34.6218 41.6456 38.3574 45.3812 38.3574 49.9747Z" fill="#F0CABB"/>
<path d="M67.3011 42.6874H98.5352C100.26 42.6874 101.659 41.2889 101.659 39.564C101.659 37.839 100.26 36.4406 98.5352 36.4406H67.3011C65.5762 36.4406 64.1777 37.839 64.1777 39.564C64.1777 41.2889 65.5762 42.6874 67.3011 42.6874Z" fill="#87A0AF"/>
<path d="M98.5347 48.9329H67.3006C65.5757 48.9329 64.1772 50.3313 64.1772 52.0563C64.1772 53.7812 65.5757 55.1797 67.3006 55.1797H98.5347C100.26 55.1797 101.658 53.7812 101.658 52.0563C101.658 50.3313 100.26 48.9329 98.5347 48.9329Z" fill="#87A0AF"/>
<path d="M98.5347 61.4271H67.3006C65.5757 61.4271 64.1772 62.8256 64.1772 64.5505C64.1772 66.2755 65.5757 67.6739 67.3006 67.6739H98.5347C100.26 67.6739 101.658 66.2755 101.658 64.5505C101.658 62.8256 100.26 61.4271 98.5347 61.4271Z" fill="#87A0AF"/>
<path d="M82.0851 9.2655H32.1107C30.3858 9.2655 28.9873 10.664 28.9873 12.3889C28.9873 14.1139 30.3858 15.5123 32.1107 15.5123H82.0851C83.8101 15.5123 85.2085 14.1139 85.2085 12.3889C85.2085 10.664 83.8101 9.2655 82.0851 9.2655Z" fill="#E68F1A"/>
<path d="M85.2081 12.3889C85.2081 14.113 83.8088 15.5123 82.0847 15.5123H56.3916V9.2655H82.0847C83.8088 9.2655 85.2081 10.6648 85.2081 12.3889Z" fill="#FFD56A"/>
</g>
<path d="M56.5 72C50.6996 72 46 76.4758 46 82C46 87.5242 50.6996 92 56.5 92C62.3004 92 67 87.5242 67 82C67 76.4758 62.3004 72 56.5 72ZM62.5968 83.129C62.5968 83.3952 62.3681 83.6129 62.0887 83.6129H58.1935V87.3226C58.1935 87.5887 57.9649 87.8065 57.6855 87.8065H55.3145C55.0351 87.8065 54.8065 87.5887 54.8065 87.3226V83.6129H50.9113C50.6319 83.6129 50.4032 83.3952 50.4032 83.129V80.871C50.4032 80.6048 50.6319 80.3871 50.9113 80.3871H54.8065V76.6774C54.8065 76.4113 55.0351 76.1935 55.3145 76.1935H57.6855C57.9649 76.1935 58.1935 76.4113 58.1935 76.6774V80.3871H62.0887C62.3681 80.3871 62.5968 80.6048 62.5968 80.871V83.129Z" fill="#02A6F3"/>
<defs>
<filter id="filter0_d_190_0" x="0" y="0" width="114.196" height="89.0002" filterUnits="userSpaceOnUse" color-interpolation-filters="sRGB">
<feFlood flood-opacity="0" result="BackgroundImageFix"/>
<feColorMatrix in="SourceAlpha" type="matrix" values="0 0 0 0 0 0 0 0 0 0 0 0 0 0 0 0 0 0 127 0" result="hardAlpha"/>
<feOffset dy="4"/>
<feGaussianBlur stdDeviation="2"/>
<feColorMatrix type="matrix" values="0 0 0 0 0 0 0 0 0 0 0 0 0 0 0 0 0 0 0.25 0"/>
<feBlend mode="normal" in2="BackgroundImageFix" result="effect1_dropShadow_190_0"/>
<feBlend mode="normal" in="SourceGraphic" in2="effect1_dropShadow_190_0" result="shape"/>
</filter>
</defs>
</svg>
