<svg width="83" height="91" viewBox="0 0 83 91" fill="none" xmlns="http://www.w3.org/2000/svg">
<g clip-path="url(#clip0_190_2)">
<path d="M73.913 50.6868L71.4374 55.6099C68.3897 61.671 62.3612 65.6655 55.5917 66.1095L52.1536 66.335C50.8948 66.4176 49.7091 66.9549 48.8171 67.8468L46.1376 70.5264L29.969 54.9185L31.8556 50.4277C32.3242 49.3124 32.5756 48.118 32.5967 46.9085L32.8666 31.3566L33.0415 22.0711C33.0806 19.9993 34.7711 18.3403 36.8432 18.3403C38.9431 18.3403 40.6455 20.0428 40.6455 22.1427V36.4449L73.913 50.6868Z" fill="#FFCEBF"/>
<path d="M68.8697 48.5276L66.5399 53.1609C63.4921 59.222 57.4636 63.2165 50.6941 63.6605L47.256 63.8861C45.9972 63.9686 44.8115 64.5059 43.9195 65.3979L42.3997 66.9177L46.1377 70.5262L48.8172 67.8467C49.7092 66.9547 50.8949 66.4174 52.1536 66.3349L55.5918 66.1094C62.3613 65.6654 68.39 61.6708 71.4375 55.6098L73.9131 50.6867L68.8697 48.5276Z" fill="#FFB09E"/>
<path d="M69.7052 56.6497H47.176C43.5695 56.6497 40.6458 53.726 40.6458 50.1194V6.53027C40.6458 2.9237 43.5695 0 47.176 0H69.7053C73.3119 0 76.2356 2.9237 76.2356 6.53027V50.1194C76.2354 53.726 73.3117 56.6497 69.7052 56.6497Z" fill="#FFE249"/>
<path d="M69.705 0H64.8074C68.4139 0 71.3376 2.9237 71.3376 6.53027V50.1194C71.3376 53.726 68.4139 56.6497 64.8074 56.6497H69.705C73.3116 56.6497 76.2353 53.726 76.2353 50.1194V6.53027C76.2353 2.9237 73.3116 0 69.705 0V0Z" fill="#FFE249"/>
<path d="M63.0857 6.20364C63.0857 7.4225 62.0975 8.41069 60.8786 8.41069H56.0027C54.7838 8.41069 53.7956 7.4225 53.7956 6.20364C53.7956 5.48232 53.2109 4.89758 52.4896 4.89758H47.9923C46.6399 4.89758 45.5435 5.99403 45.5435 7.34641V49.3031C45.5435 50.6555 46.6399 51.7519 47.9923 51.7519H68.889C70.2414 51.7519 71.3378 50.6555 71.3378 49.3031V7.34641C71.3378 5.99403 70.2414 4.89758 68.889 4.89758H64.3917C63.6704 4.89758 63.0857 5.48232 63.0857 6.20364Z" fill="#F9F7F8"/>
<path d="M68.889 51.752H47.9923C46.6399 51.752 45.5435 50.6555 45.5435 49.3031V44.2396C45.5435 37.1243 51.3177 31.3562 58.4406 31.3562C65.5634 31.3562 71.3377 37.1243 71.3377 44.2396V49.3031C71.3378 50.6555 70.2414 51.752 68.889 51.752Z" fill="#6AA9FF"/>
<path d="M58.4405 31.3562C57.6029 31.3562 56.7848 31.4387 55.9917 31.5911C61.943 32.7342 66.44 37.961 66.44 44.2396V49.3031C66.44 50.6555 65.3435 51.752 63.9911 51.752H68.8888C70.2412 51.752 71.3376 50.6555 71.3376 49.3031V44.2396C71.3378 37.1243 65.5634 31.3562 58.4405 31.3562Z" fill="#2880EA"/>
<path d="M58.4444 33.1432H58.437C54.6378 33.1432 51.5581 30.0634 51.5581 26.2643V23.0078L52.2588 17.8331C52.2588 15.6059 53.3807 15.1891 55.6079 15.1891L61.0721 14.9247C63.2992 14.9247 64.6415 16.1128 64.6415 18.34L65.3232 23.0078V26.2643C65.3232 30.0634 62.2435 33.1432 58.4444 33.1432Z" fill="#FFCEBF"/>
<path d="M61.4804 14.2497L56.3929 13.8491C58.6201 13.8491 60.4254 15.6545 60.4254 17.8818V20.7611V26.2644C60.4254 29.2021 58.5832 31.7082 55.9917 32.6943C56.7516 32.9836 57.5754 33.1433 58.4368 33.1433H58.4442C62.2433 33.1433 65.3231 30.0636 65.3231 26.2644V23.0081L64.8284 17.9169C64.8286 15.6896 63.7075 14.2497 61.4804 14.2497Z" fill="#FFB09E"/>
<path d="M61.2913 13.8491H55.5916C53.3645 13.8491 51.5591 15.6545 51.5591 17.8818V23.0079L57.3914 21.0885C59.5421 20.3807 61.8996 20.7055 63.7783 21.9686L65.324 23.0079V17.8818C65.3239 15.6547 63.5183 13.8491 61.2913 13.8491Z" fill="#E19974"/>
<path d="M61.2907 13.8491H56.3931C58.6202 13.8491 60.4256 15.6545 60.4256 17.8818V20.7611C61.6104 20.8814 62.7637 21.2871 63.7775 21.9687L65.3232 23.0081V17.882C65.3232 15.6547 63.5177 13.8491 61.2907 13.8491Z" fill="#C2633D"/>
<path d="M58.4404 5.42975C59.1166 5.42975 59.6647 4.8816 59.6647 4.20541C59.6647 3.52923 59.1166 2.98108 58.4404 2.98108C57.7642 2.98108 57.2161 3.52923 57.2161 4.20541C57.2161 4.8816 57.7642 5.42975 58.4404 5.42975Z" fill="#335E80"/>
<path d="M78.9485 26.1632H76.2354V18.521H78.9485C81.0589 18.521 82.3623 20.2318 82.3623 22.3422C82.3623 24.4524 81.0589 26.1632 78.9485 26.1632Z" fill="#FFCEBF"/>
<path d="M78.9485 33.8054H76.2354V26.1632H78.9485C81.0589 26.1632 82.3623 27.874 82.3623 29.9844C82.3623 32.0947 81.0589 33.8054 78.9485 33.8054Z" fill="#FFB09E"/>
<path d="M78.9485 41.4477H76.2354V33.8055H78.9485C81.0589 33.8055 82.3623 35.5163 82.3623 37.6267C82.3623 39.7369 81.0589 41.4477 78.9485 41.4477Z" fill="#FFCEBF"/>
<path d="M78.9485 49.0897H76.2354V41.4475H78.9485C81.0589 41.4475 82.3623 43.1583 82.3623 45.2687C82.3623 47.3789 81.0589 49.0897 78.9485 49.0897Z" fill="#FFB09E"/>
<path d="M39.0877 81.1379L47.0117 73.2139C47.968 72.2576 47.968 70.707 47.0117 69.7507L30.2878 53.0269C29.3314 52.0706 27.7809 52.0706 26.8245 53.0269L1.22434 78.7708L0.542272 79.4075C0.196415 79.7304 0 80.1822 0 80.6553C0 81.5981 0.764264 82.3624 1.70709 82.3624H35.8011C37.008 82.3624 38.1748 81.9277 39.0877 81.1379Z" fill="#2880EA"/>
<path d="M47.0117 69.7507L44.9941 67.7332C44.8828 67.9428 44.7393 68.1397 44.5628 68.3161L36.6388 76.2401C35.7259 77.0299 34.5594 77.4646 33.3522 77.4646H2.52315L1.22434 78.7707L0.542272 79.4074C0.196415 79.7302 0 80.1821 0 80.6552C0 81.598 0.764264 82.3623 1.70709 82.3623H35.8011C37.0082 82.3623 38.1748 81.9276 39.0877 81.1378L47.0117 73.2138C47.968 72.2576 47.968 70.707 47.0117 69.7507Z" fill="#9FCAFC"/>
</g>
<path d="M46.5 71C40.6996 71 36 75.4758 36 81C36 86.5242 40.6996 91 46.5 91C52.3004 91 57 86.5242 57 81C57 75.4758 52.3004 71 46.5 71ZM52.5968 82.129C52.5968 82.3952 52.3681 82.6129 52.0887 82.6129H48.1935V86.3226C48.1935 86.5887 47.9649 86.8065 47.6855 86.8065H45.3145C45.0351 86.8065 44.8065 86.5887 44.8065 86.3226V82.6129H40.9113C40.6319 82.6129 40.4032 82.3952 40.4032 82.129V79.871C40.4032 79.6048 40.6319 79.3871 40.9113 79.3871H44.8065V75.6774C44.8065 75.4113 45.0351 75.1935 45.3145 75.1935H47.6855C47.9649 75.1935 48.1935 75.4113 48.1935 75.6774V79.3871H52.0887C52.3681 79.3871 52.5968 79.6048 52.5968 79.871V82.129Z" fill="#02A6F3"/>
<defs>
<clipPath id="clip0_190_2">
<rect width="82.3623" height="82.3623" fill="white"/>
</clipPath>
</defs>
</svg>
