<svg width="256" height="256" fill="none" xmlns="http://www.w3.org/2000/svg"><circle cx="128" cy="128" r="128" fill="#50AF95"/><path fill-rule="evenodd" clip-rule="evenodd" d="M143.331 136.414c-.873.066-5.382.335-15.44.335-8 0-13.68-.24-15.673-.335-30.916-1.36-53.993-6.742-53.993-13.185 0-6.444 23.077-11.818 53.993-13.2v21.025c2.022.146 7.811.487 15.811.487 9.6 0 14.407-.4 15.273-.48v-21.018c30.851 1.375 53.876 6.757 53.876 13.186s-23.018 11.811-53.876 13.178l.029.007zm0-28.545V89.054h43.055v-28.69H69.164v28.69h43.047v18.807c-34.99 1.608-61.302 8.539-61.302 16.844 0 8.306 26.313 15.229 61.302 16.844v60.291h31.113v-60.313c34.909-1.607 61.178-8.531 61.178-16.829s-26.247-15.222-61.178-16.837l.007.008z" fill="#fff"/></svg>